HIERARCHY
ROOT Hips
{
 OFFSET 0.000000 0.000000 0.000000
 CHANNELS 6 Xposition Yposition Zposition Yrotation Xrotation Zrotation
 JOINT Chest
 {
  OFFSET 0.000000 13.173100 -0.061900
  CHANNELS 3 Yrotation Xrotation Zrotation
  JOINT Chest2
  {
   OFFSET 0.000000 8.040800 0.126200
   CHANNELS 3 Yrotation Xrotation Zrotation
   JOINT Chest3
   {
    OFFSET 0.000000 7.994400 0.000000
    CHANNELS 3 Yrotation Xrotation Zrotation
    JOINT Chest4
    {
     OFFSET 0.000000 7.986200 0.000000
     CHANNELS 3 Yrotation Xrotation Zrotation
     JOINT Neck
     {
      OFFSET 0.000000 12.259400 0.000000
      CHANNELS 3 Yrotation Xrotation Zrotation
      JOINT Head
      {
       OFFSET 0.000000 7.518700 0.267100
       CHANNELS 3 Yrotation Xrotation Zrotation
       End Site
       {
        OFFSET 0.000000 13.617700 0.141000
       }
      }
     }
     JOINT RightCollar
     {
      OFFSET -2.983800 8.314300 0.000000
      CHANNELS 3 Yrotation Xrotation Zrotation
      JOINT RightShoulder
      {
       OFFSET -16.133400 0.000000 0.000000
       CHANNELS 3 Yrotation Xrotation Zrotation
       JOINT RightElbow
       {
        OFFSET 0.000000 -29.822100 0.000000
        CHANNELS 3 Yrotation Xrotation Zrotation
        JOINT RightWrist
        {
         OFFSET 0.000000 -24.437700 0.010900
         CHANNELS 3 Yrotation Xrotation Zrotation
         End Site
         {
          OFFSET 0.000000 -18.312300 0.000000
         }
        }
       }
      }
     }
     JOINT LeftCollar
     {
      OFFSET 2.983800 8.314300 0.000000
      CHANNELS 3 Yrotation Xrotation Zrotation
      JOINT LeftShoulder
      {
       OFFSET 16.133400 0.000000 0.000000
       CHANNELS 3 Yrotation Xrotation Zrotation
       JOINT LeftElbow
       {
        OFFSET 0.000000 -29.822100 0.000000
        CHANNELS 3 Yrotation Xrotation Zrotation
        JOINT LeftWrist
        {
         OFFSET 0.000000 -24.437700 0.010900
         CHANNELS 3 Yrotation Xrotation Zrotation
         End Site
         {
          OFFSET 0.000000 -18.312300 0.000000
         }
        }
       }
      }
     }
    }
   }
  }
 }
 JOINT RightHip
 {
  OFFSET -11.206700 0.306200 0.030900
  CHANNELS 3 Yrotation Xrotation Zrotation
  JOINT RightKnee
  {
   OFFSET 0.000000 -57.334900 0.009400
   CHANNELS 3 Yrotation Xrotation Zrotation
   JOINT RightAnkle
   {
    OFFSET 0.000000 -43.376200 0.036600
    CHANNELS 3 Yrotation Xrotation Zrotation
    JOINT RightToe
    {
     OFFSET 0.000000 -10.035500 18.363100
     CHANNELS 3 Yrotation Xrotation Zrotation
     End Site
     {
      OFFSET 0.000000 -1.618500 7.239000
     }
    }
   }
  }
 }
 JOINT LeftHip
 {
  OFFSET 11.206700 0.306200 0.030900
  CHANNELS 3 Yrotation Xrotation Zrotation
  JOINT LeftKnee
  {
   OFFSET 0.000000 -57.334900 0.009400
   CHANNELS 3 Yrotation Xrotation Zrotation
   JOINT LeftAnkle
   {
    OFFSET 0.000000 -43.376200 0.036600
    CHANNELS 3 Yrotation Xrotation Zrotation
    JOINT LeftToe
    {
     OFFSET 0.000000 -10.035500 18.363100
     CHANNELS 3 Yrotation Xrotation Zrotation
     End Site
     {
      OFFSET 0.000000 -1.618500 7.239000
     }
    }
   }
  }
 }
}
MOTION
Frames: 16
Frame Time: 0.008333
-97.254244 65.177280 87.324826 173.487625 -36.994011 -2.262293 1.777206 20.828733 2.318648 0.214647 2.773442 0.413108 0.359512 4.534800 0.685890 1.788172 17.862192 2.938405 1.518688 16.268919 0.473841 2.653136 -5.584248 0.335032 -2.512165 -0.098829 -2.979029 -4.832520 -1.850637 4.183299 131.760726 -80.296962 -123.260300 4.319186 0.365815 -1.780640 -3.466724 0.383649 -0.590818 6.693502 -6.166184 2.660774 -161.165650 -72.112187 144.891806 -12.831848 -23.752072 27.969056 -4.213507 -43.842582 3.547217 -103.193092 88.981427 -98.583524 -1.645161 -8.337325 -3.468455 0.052454 -0.148033 0.015531 -3.113052 -40.625959 4.392765 74.895036 83.243140 64.360912 -5.850987 -14.108352 7.958805 0.360009 1.197473 0.257211
-97.255405 65.164393 87.326863 173.487907 -36.975394 -2.263788 1.777453 20.847178 2.343906 0.212456 2.772760 0.413685 0.358070 4.509288 0.666611 1.786357 17.856806 2.935270 1.525143 16.267790 0.462334 2.678652 -5.599465 0.278761 -2.506790 -0.173343 -3.024200 -4.841097 -1.842237 4.168498 131.812990 -80.305452 -123.274889 4.370400 0.310943 -1.738397 -3.505575 0.303873 -0.576181 6.655617 -6.396988 2.703810 -161.256837 -71.777062 144.956097 -12.863888 -24.024063 28.108244 -4.276930 -43.846170 3.583163 -102.389762 88.962158 -97.806917 -1.623676 -8.350209 -3.482149 0.058507 -0.138017 0.016092 -3.108128 -40.642859 4.401548 74.831996 83.249523 64.289681 -5.850469 -14.098358 7.955113 0.354198 1.181749 0.246095
-97.256658 65.152330 87.328192 173.494121 -36.959402 -2.268434 1.771408 20.842314 2.352867 0.211720 2.775215 0.416890 0.355418 4.519950 0.678878 1.779653 17.846494 2.924815 1.524920 16.256340 0.442071 2.710120 -5.609340 0.216305 -2.502015 -0.221008 -3.060717 -4.844699 -1.837793 4.161423 131.987711 -80.213545 -123.391574 4.334407 0.353417 -1.745603 -3.540706 0.213754 -0.572078 6.611067 -6.640304 2.747770 -161.373954 -71.441907 145.052207 -12.892698 -24.300479 28.248881 -4.356364 -43.847602 3.631617 -101.794455 88.952416 -97.256503 -1.614520 -8.359476 -3.486119 0.056933 -0.133051 0.015445 -3.098326 -40.657923 4.403573 74.779611 83.250560 64.237901 -5.860481 -14.085463 7.955264 0.361803 1.169897 0.245855
-97.256141 65.140590 87.329277 173.497837 -36.945382 -2.277489 1.769588 20.831746 2.362018 0.211738 2.782344 0.425363 0.353909 4.518637 0.680134 1.767737 17.849441 2.930508 1.533969 16.249045 0.412719 2.729630 -5.617928 0.174863 -2.488485 -0.267005 -3.102224 -4.848679 -1.833847 4.154490 132.106561 -80.160271 -123.462026 4.322906 0.358596 -1.749049 -3.567501 0.125466 -0.572440 6.563711 -6.894922 2.791993 -161.517633 -71.108744 145.177302 -12.920517 -24.575574 28.383640 -4.434222 -43.847708 3.689084 -101.165237 88.947321 -96.671621 -1.609313 -8.367079 -3.489450 0.053208 -0.130287 0.017552 -3.070348 -40.669148 4.400842 74.692032 83.254475 64.170994 -5.875869 -14.084559 7.949968 0.378512 1.168976 0.250057
-97.255798 65.128716 87.330060 173.498917 -36.932554 -2.281260 1.770659 20.830571 2.375393 0.210560 2.776881 0.423672 0.351400 4.519969 0.685520 1.766113 17.849607 2.934354 1.546267 16.243496 0.380891 2.748251 -5.621835 0.128089 -2.468455 -0.393904 -3.188185 -4.861935 -1.775663 4.164817 132.144007 -80.167779 -123.466205 4.321535 0.344272 -1.742429 -3.586104 0.079547 -0.579762 6.497454 -7.197243 2.839812 -161.674309 -70.777897 145.314282 -12.951192 -24.834152 28.507643 -4.491704 -43.849303 3.734623 -100.686212 88.939440 -96.230284 -1.606984 -8.376194 -3.491731 0.048548 -0.133140 0.022573 -3.054559 -40.681393 4.395215 74.662784 83.248485 64.154220 -5.879113 -14.077911 7.948890 0.378999 1.163247 0.247547
-97.255462 65.114328 87.333416 173.500580 -36.905708 -2.283350 1.769252 20.812416 2.386636 0.209568 2.770034 0.415786 0.346735 4.519796 0.690394 1.764953 17.847798 2.942549 1.549636 16.243668 0.358302 2.790600 -5.620487 0.053714 -2.447225 -0.462046 -3.243357 -4.849830 -1.830514 4.099727 132.026455 -80.286346 -123.363493 4.336311 0.296534 -1.718307 -3.601317 0.041082 -0.586611 6.430193 -7.506831 2.883785 -161.830996 -70.446155 145.450163 -12.974907 -25.064592 28.613187 -4.553420 -43.870395 3.792055 -100.265241 88.921966 -95.860877 -1.609667 -8.379015 -3.484107 0.052869 -0.133399 0.026892 -3.037937 -40.709681 4.384658 74.653922 83.233273 64.159306 -5.882500 -14.072096 7.947885 0.378543 1.160676 0.243463
-97.255874 65.100475 87.334892 173.504350 -36.888539 -2.279295 1.755561 20.806269 2.387451 0.211600 2.764957 0.409940 0.347147 4.514135 0.690017 1.751184 17.838915 2.958731 1.564100 16.251894 0.319839 2.817413 -5.616990 0.002819 -2.426508 -0.469938 -3.279543 -4.842569 -1.858291 4.071399 132.167874 -80.261280 -123.473217 4.311735 0.294299 -1.718477 -3.625253 -0.027953 -0.589999 6.380874 -7.782429 2.917436 -161.990008 -70.115249 145.588936 -12.984647 -25.269833 28.701240 -4.555007 -43.885908 3.794620 -100.215873 88.910837 -95.818554 -1.610172 -8.384632 -3.479435 0.054388 -0.131691 0.027644 -3.020354 -40.726992 4.367856 74.683040 83.207634 64.193336 -5.896345 -14.064208 7.951504 0.375169 1.155191 0.235745
-97.256153 65.086694 87.335216 173.509259 -36.877749 -2.272948 1.746027 20.797750 2.380061 0.208644 2.763912 0.412453 0.349685 4.513049 0.685520 1.745134 17.837755 2.971006 1.573376 16.249899 0.290182 2.838699 -5.614221 -0.045454 -2.396886 -0.532736 -3.329558 -4.858463 -1.805584 4.087267 132.373012 -80.201429 -123.631402 4.277456 0.293946 -1.724141 -3.659918 -0.096361 -0.585726 6.327770 -8.072785 2.951470 -162.147611 -69.792492 145.728846 -12.989588 -25.461397 28.787265 -4.530258 -43.898333 3.776348 -100.395973 88.911363 -95.989456 -1.614571 -8.389266 -3.472391 0.054289 -0.137775 0.027325 -3.011566 -40.737582 4.353580 74.698830 83.187368 64.210896 -5.914033 -14.055005 7.952646 0.379515 1.150118 0.224561
-97.255291 65.072917 87.334734 173.509584 -36.872084 -2.265712 1.741619 20.794687 2.375643 0.206758 2.765108 0.417440 0.348142 4.511211 0.686905 1.738250 17.840831 2.973671 1.581252 16.243899 0.265264 2.861908 -5.616613 -0.099828 -2.372082 -0.597832 -3.382442 -4.855053 -1.801764 4.071382 132.437799 -80.232237 -123.685752 4.257671 0.303042 -1.731047 -3.724006 -0.217527 -0.578444 6.300520 -8.325183 2.986120 -162.301026 -69.482808 145.864071 -13.000245 -25.647363 28.884822 -4.487325 -43.908306 3.751919 -100.719725 88.913080 -96.295601 -1.628775 -8.390378 -3.461971 0.052753 -0.146170 0.026442 -2.986355 -40.742674 4.331877 74.734050 83.165037 64.255191 -5.928416 -14.053151 7.958561 0.376682 1.149444 0.217722
-97.252057 65.059453 87.333449 173.503478 -36.872012 -2.262197 1.743135 20.799978 2.382865 0.205696 2.764805 0.417794 0.346330 4.510842 0.687661 1.735362 17.848915 2.976605 1.586241 16.232297 0.238590 2.887471 -5.625640 -0.152446 -2.335148 -0.702554 -3.446043 -4.863220 -1.768789 4.067214 132.373998 -80.292715 -123.633197 4.246379 0.221575 -1.682013 -3.767562 -0.307837 -0.574657 6.246257 -8.629353 3.022652 -162.446942 -69.190369 145.992159 -13.019956 -25.834703 28.996824 -4.462132 -43.911227 3.745261 -100.951783 88.913185 -96.515302 -1.631468 -8.390167 -3.456989 0.051670 -0.153800 0.024300 -2.964970 -40.741049 4.320011 74.725039 83.160682 64.257481 -5.917896 -14.060716 7.954946 0.365717 1.153510 0.217930
-97.240595 65.047331 87.331397 173.465973 -36.881936 -2.273203 1.780980 20.819250 2.425015 0.205212 2.765079 0.418381 0.341926 4.531838 0.698811 1.734556 17.837741 2.969084 1.599465 16.226060 0.201499 2.899822 -5.651652 -0.192117 -2.312860 -0.780227 -3.492596 -4.863298 -1.771797 4.045178 132.709673 -80.296917 -123.909699 4.218514 0.233457 -1.690804 -3.781200 -0.358693 -0.581578 6.155603 -8.995545 3.066083 -162.565143 -68.914523 146.097488 -13.042075 -26.029630 29.118254 -4.442858 -43.899814 3.787317 -100.563632 88.915397 -96.110546 -1.631788 -8.381130 -3.456215 0.047211 -0.160448 0.021343 -2.958919 -40.730578 4.360399 74.723282 83.159701 64.258518 -5.881146 -14.050816 7.963148 0.336157 1.138297 0.197666
-97.235675 65.031783 87.332599 173.454886 -36.866649 -2.272562 1.789456 20.820882 2.437959 0.204890 2.766117 0.418896 0.337486 4.536241 0.701887 1.732395 17.841592 2.973626 1.603251 16.211166 0.174286 2.907954 -5.668455 -0.215608 -2.293790 -0.844361 -3.532910 -4.842426 -1.846291 3.981307 132.714778 -80.403090 -123.915826 4.206893 0.205823 -1.682911 -3.814991 -0.453124 -0.585789 6.086464 -9.334302 3.111167 -162.649674 -68.653689 146.170400 -13.062230 -26.230718 29.242811 -4.377329 -43.923297 3.769023 -100.732306 88.905555 -96.242267 -1.643118 -8.375104 -3.446477 0.052539 -0.167235 0.023074 -2.962921 -40.748451 4.377218 74.766832 83.160572 64.297142 -5.884715 -14.049317 7.963408 0.341235 1.135806 0.195469
-97.230728 65.017655 87.332114 173.441466 -36.858216 -2.269946 1.786366 20.850976 2.454164 0.206754 2.764451 0.420221 0.345971 4.511610 0.689313 1.730343 17.860540 2.984744 1.604406 16.190629 0.147220 2.925224 -5.709203 -0.281366 -2.274531 -0.905577 -3.571673 -4.841415 -1.866681 3.961825 132.753346 -80.448646 -123.949412 4.201841 0.162817 -1.668285 -3.846597 -0.547451 -0.592896 6.016593 -9.682738 3.165618 -162.725256 -68.411547 146.230603 -13.084763 -26.432028 29.367759 -4.353622 -43.935470 3.770620 -100.960692 88.913687 -96.454184 -1.651815 -8.374531 -3.450032 0.060692 -0.171255 0.026115 -2.959178 -40.757959 4.387996 74.772166 83.168812 64.304636 -5.884306 -14.050847 7.967992 0.336668 1.135608 0.186795
-97.226143 65.004002 87.331404 173.436899 -36.847713 -2.272356 1.782461 20.860793 2.460676 0.213921 2.749454 0.417856 0.344225 4.518797 0.692432 1.730682 17.883310 2.996501 1.602536 16.162773 0.120003 2.935150 -5.767227 -0.345862 -2.254594 -0.964614 -3.608243 -4.845634 -1.888682 3.945932 132.889133 -80.463935 -124.051937 4.188434 0.168759 -1.688514 -3.864895 -0.618171 -0.602198 5.933080 -10.058159 3.228346 -162.807582 -68.191152 146.294695 -13.110632 -26.632398 29.486513 -4.348452 -43.945830 3.775531 -101.181581 88.916514 -96.664663 -1.650973 -8.381043 -3.454640 0.053988 -0.168438 0.024992 -2.972025 -40.769655 4.407115 74.795744 83.175367 64.319737 -5.887297 -14.049568 7.968723 0.338990 1.133366 0.186801
-97.218994 64.991723 87.329967 173.419361 -36.840526 -2.280183 1.796145 20.869340 2.481458 0.211845 2.755980 0.417058 0.339635 4.555992 0.706655 1.740535 17.862881 2.995181 1.596570 16.126797 0.092239 2.936637 -5.796758 -0.368518 -2.236574 -1.024552 -3.644950 -4.852519 -1.899068 3.940588 132.985552 -80.465300 -124.126944 4.183491 0.154529 -1.697287 -3.872037 -0.669631 -0.616602 5.835347 -10.451308 3.299063 -162.886761 -67.991844 146.355141 -13.138506 -26.826876 29.590288 -4.358508 -43.950636 3.809279 -101.099020 88.918116 -96.578881 -1.649312 -8.382893 -3.461070 0.054919 -0.168370 0.024883 -2.996386 -40.777060 4.451520 74.833128 83.193384 64.344613 -5.882241 -14.053581 7.964464 0.344091 1.130879 0.188980
-97.214299 64.979656 87.328527 173.399636 -36.828569 -2.279525 1.810254 20.882629 2.499279 0.208999 2.756350 0.417408 0.344563 4.565171 0.709826 1.745521 17.871863 3.002881 1.585690 16.081772 0.064615 2.927235 -5.895623 -0.431072 -2.219109 -1.088058 -3.681876 -4.868023 -1.888315 3.950246 133.080418 -80.441499 -124.185468 4.179420 0.129687 -1.712813 -3.896410 -0.758437 -0.625576 5.751776 -10.802975 3.371834 -162.950879 -67.815111 146.401833 -13.165018 -27.009033 29.670825 -4.373800 -43.960769 3.839967 -101.091512 88.914723 -96.578111 -1.641560 -8.388277 -3.464720 0.048863 -0.168136 0.024248 -3.002788 -40.789413 4.474102 74.849418 83.206910 64.358031 -5.869064 -14.057890 7.958792 0.341695 1.129454 0.189458
